<svg width="32" height="32" viewBox="0 0 32 32" xmlns="http://www.w3.org/2000/svg">
    <defs>
        <linearGradient id="logoGradient" x1="0%" y1="0%" x2="100%" y2="100%">
            <stop offset="0%" style="stop-color:#ffd700;stop-opacity:1" />
            <stop offset="100%" style="stop-color:#b8860b;stop-opacity:1" />
        </linearGradient>
        <linearGradient id="greenGradient" x1="0%" y1="0%" x2="0%" y2="100%">
            <stop offset="0%" style="stop-color:#4a7c59;stop-opacity:1" />
            <stop offset="100%" style="stop-color:#2c5530;stop-opacity:1" />
        </linearGradient>
        <radialGradient id="bgGlow" cx="50%" cy="50%" r="80%">
            <stop offset="0%" style="stop-color:#ffffff;stop-opacity:0.95" />
            <stop offset="100%" style="stop-color:#e8f5e8;stop-opacity:0.8" />
        </radialGradient>
    </defs>
    
    <!-- Background -->
    <rect x="0" y="0" width="32" height="32" fill="url(#bgGlow)" rx="3"/>
    
    <!-- Father figure (center) -->
    <g transform="translate(16, 12)">
        <ellipse cx="0" cy="2" rx="2.5" ry="6" fill="url(#greenGradient)"/>
        <circle cx="0" cy="-4" r="2.5" fill="url(#greenGradient)"/>
        <ellipse cx="-2" cy="3" rx="1" ry="4" transform="rotate(-20 -2 3)" fill="url(#greenGradient)"/>
        <ellipse cx="2" cy="3" rx="1" ry="4" transform="rotate(20 2 3)" fill="url(#greenGradient)"/>
    </g>
    
    <!-- Left child -->
    <g transform="translate(10, 15)">
        <ellipse cx="0" cy="2" rx="1.5" ry="4" fill="url(#logoGradient)"/>
        <circle cx="0" cy="-2" r="2" fill="url(#logoGradient)"/>
    </g>
    
    <!-- Right child -->
    <g transform="translate(22, 15)">
        <ellipse cx="0" cy="2" rx="1.5" ry="4" fill="url(#logoGradient)"/>
        <circle cx="0" cy="-2" r="2" fill="url(#logoGradient)"/>
    </g>
    
    <!-- Justice scales symbol -->
    <g transform="translate(16, 6)" fill="url(#logoGradient)">
        <line x1="-3" y1="0" x2="3" y2="0" stroke="url(#logoGradient)" stroke-width="0.8"/>
        <circle cx="-2" cy="0" r="0.8"/>
        <circle cx="2" cy="0" r="0.8"/>
        <line x1="0" y1="-1.5" x2="0" y2="1.5" stroke="url(#logoGradient)" stroke-width="0.8"/>
    </g>
    
    <!-- Golden accent bar at bottom -->
    <rect x="2" y="26" width="28" height="4" rx="2" fill="url(#logoGradient)" opacity="0.8"/>
</svg>